<svg xmlns="http://www.w3.org/2000/svg" viewBox="0 0 800 800">
  <title>Artboard ۳</title>
  <g style="isolation: isolate">
    <g id="f16e40af-d10d-49fb-a72b-7103fe5a971b" data-name="objects">
      <g>
        <g>
          <path d="M727.15,588.62s26.48-151.38-13.76-219.38S582,363.75,512.88,303s-169.53-57.57-238.41-22.06-65.23,82.41-124.39,100.45-81.57,47.07-87.53,75.41,1.07,131.83,1.07,131.83Z" style="fill: #a6d8e2;opacity: 0.30000000000000004"/>
          <path d="M71.37,564.28s-9.73-91.87,60.32-147.82,128.87,23,181.8,0,93.59-81.18,160.24-63.72,60,59.17,106.11,63.72,119.82-23.53,147.31,27.9,0,119.92,0,119.92Z" style="fill: #a6d8e2;opacity: 0.4"/>
          <path d="M69.91,552.35S197.88,430.94,226,430,385.85,552.35,385.85,552.35Z" style="fill: #cfcf83"/>
          <path d="M139.84,493.63c4.25,1.85,9.15-.16,13-2,8.69-4.18,18.89-8.82,28-2.9,2.28,1.47,4.86,4.74,7.6,5.25,4.8.88,9.87-2.25,14.1-4,9.42-4,17.73-2.93,25.06,4.3,2.81,2.77,6.15,6.26,10.56,5.07,3.59-1,6.36-3.39,9.3-5.57,6.78-5.07,14.53-7.17,22.59-3.57,4,1.76,7.28,4.72,11.26,6.4,5.33,2.25,7.32-1.31,10.73-4.59,3.19-3.08,7.09-6.08,11.57-6.93a47.16,47.16,0,0,1,5.14-.64C274.53,456,239,429.5,226,430c-14.11.49-53.46,31.41-89.11,62A22.88,22.88,0,0,0,139.84,493.63Z" style="fill: #dfde9f"/>
          <path d="M273.78,555.24S444.61,393.17,482.09,391.86,695.54,555.24,695.54,555.24Z" style="fill: #d2b350"/>
          <path d="M395.31,471.79c9-.05,16.54-6.5,25.52-7.13,6.9-.47,13.31,2,19.15,5.48,5.08,3,10.28,7.19,16.27,8.17,7.49,1.21,12.89-4.8,19.57-7,9-2.93,17-.66,25.88,1.26,4.89,1.05,8.76,1.25,12.62-2.17a28,28,0,0,1,8.5-5.65c9.19-3.51,17.63-1.36,26.52,2a2,2,0,0,1,.29.14c5-1.51,10.09-3.32,12.54-7.07A63.26,63.26,0,0,0,568.74,446c-37.43-29.73-72.25-53.71-86.65-53.21-16.54.58-59.08,32.49-101.43,67.95C384,466.42,388.63,471.82,395.31,471.79Z" style="fill: #e5c56e"/>
          <g>
            <path d="M35.36,491.14c0,24.63,21.27,35.09,42.84,35.09S121,516.4,121,491.77s-21.23-54.72-42.8-54.72S35.36,466.52,35.36,491.14Z" style="fill: #93c148"/>
            <path d="M58.4,510.15c9.5-1.93,17.88-6.44,25.57-12.23,7.29-5.49,15.83-11.43,20.5-19.47,4-6.87,4.27-14.2,4.37-21.69,7.35,10.36,12.16,23.3,12.16,35,0,24.63-21.23,34.46-42.8,34.46-14.3,0-28.46-4.6-36.39-14.88A72.18,72.18,0,0,0,58.4,510.15Z" style="fill: #a9ca54"/>
            <polygon points="81.83 548.96 81.83 514.39 97.74 503.78 110.51 508.5 110.51 507.32 99.51 502.21 107.17 495.92 108.13 493.54 97.94 500.05 98.33 488.26 97.52 488.26 96.17 501.62 81.83 509.48 81.32 481.97 91.85 472.55 107.76 475.1 107.69 473.8 94.21 471.07 106.97 461.35 106.97 460.24 92.66 468.71 91.92 454.28 91.26 454.28 90.67 470.58 81.32 478.88 80.06 445.24 78.3 443.28 79.28 487.28 64.94 479.03 60.7 463.33 59.24 462.72 61.99 477.65 47.06 466.45 47.06 468.42 60.81 478.63 45.88 481.19 45.88 482.12 63.76 480.99 79.08 490.81 78.2 508.88 67.3 503.39 67.49 491.8 66.51 490.22 65.14 502.21 51.78 493.37 49.81 493.37 63.37 503.19 47.65 510.06 48.06 510.72 65.72 505.15 78.2 512.42 75.94 548.96 81.83 548.96" style="fill: #684c46"/>
            <path d="M45.88,482.12v-.93l14.93-2.55L47.06,468.42v-2L62,477.65l-2.75-14.93,1.46.61L64.94,479l14.34,8.25-1-44,.52.58c0,.1,0,.19,0,.29,0,7.3,0,14.64.42,21.93.35,7.09.29,14.31,1.07,21.37.46,4.21-.14,61.51-.14,61.51H75.94l2.26-36.54-12.48-7.27-17.66,5.57-.41-.66,15.72-6.87-13.56-9.82h2l13.36,8.84,1.37-12,1,1.58-.19,11.59,10.9,5.5.88-18.08L63.76,481Z" style="fill: #442e2a"/>
          </g>
          <g>
            <path d="M162.09,507.76c0,18.42-15.91,26.25-32,26.25s-32-7.36-32-25.78,15.88-40.93,32-40.93S162.09,489.34,162.09,507.76Z" style="fill: #86b43a"/>
            <path d="M144.86,522c-7.1-1.44-13.37-4.81-19.13-9.14-5.45-4.11-11.84-8.55-15.33-14.57-3-5.14-3.19-10.62-3.27-16.22-5.5,7.75-9.09,17.43-9.09,26.19,0,18.42,15.88,25.78,32,25.78,10.7,0,21.29-3.45,27.22-11.14A53.43,53.43,0,0,1,144.86,522Z" style="fill: #93c148"/>
            <polygon points="127.33 551 127.33 525.14 115.43 517.21 105.88 520.74 105.88 519.85 114.11 516.03 108.38 511.33 107.66 509.55 115.28 514.42 114.99 505.6 115.59 505.6 116.61 515.59 127.33 521.47 127.72 500.9 119.84 493.85 107.94 495.76 107.99 494.78 118.07 492.74 108.52 485.47 108.52 484.64 119.23 490.98 119.78 480.18 120.28 480.18 120.72 492.38 127.72 498.58 128.65 473.42 129.98 471.95 129.24 504.87 139.97 498.69 143.14 486.95 144.23 486.5 142.17 497.67 153.34 489.29 153.34 490.76 143.05 498.4 154.22 500.31 154.22 501.01 140.85 500.16 129.39 507.51 130.05 521.03 138.2 516.92 138.06 508.25 138.79 507.07 139.82 516.03 149.81 509.42 151.28 509.42 141.14 516.77 152.9 521.91 152.59 522.4 139.38 518.24 130.05 523.68 131.74 551 127.33 551" style="fill: #684c46"/>
          </g>
          <path d="M597,529.47c0-6.55-5.65-14.38-11.39-14.38s-11.37,8-11.37,14.55c0,6.17,5,8.84,10.41,9.13v6.06h1.56l-.37-6C591.44,538.72,597,535.93,597,529.47Z" style="fill: #64842c"/>
          <path d="M738.28,517.11c0-10.65-9.19-23.39-18.52-23.39s-18.51,13-18.51,23.66c0,10,8.08,14.35,16.77,14.85l-.61,18.42,4.27-3.69-1.36-14.69C729.45,532.1,738.28,527.55,738.28,517.11Z" style="fill: #779d2c"/>
          <path d="M65.07,530.53c0-6.69-5.77-14.7-11.63-14.7S41.81,524,41.81,530.7c0,6.31,5.14,9,10.64,9.33v6.2h1.6l-.38-6.18C59.45,540,65.07,537.13,65.07,530.53Z" style="fill: #64842c"/>
          <path d="M173.29,526.84c0-6.44-5.56-14.14-11.21-14.14s-11.19,7.87-11.19,14.31c0,6,4.89,8.67,10.14,9l-.37,11.13,2.58-2.23-.82-8.88C167.94,535.9,173.29,533.15,173.29,526.84Z" style="fill: #779d2c"/>
          <g>
            <path d="M746.62,474.53c0,31.85-27.5,45.38-55.39,45.38s-55.36-12.72-55.36-44.57,27.46-70.77,55.36-70.77S746.62,442.68,746.62,474.53Z" style="fill: #93c148"/>
            <path d="M716.83,499.11c-12.28-2.49-23.12-8.33-33.07-15.82-9.43-7.1-20.47-14.78-26.52-25.18-5.16-8.89-5.51-18.36-5.64-28.05-9.52,13.4-15.73,30.14-15.73,45.28,0,31.85,27.46,44.57,55.36,44.57,18.49,0,36.81-6,47-19.25A92.93,92.93,0,0,1,716.83,499.11Z" style="fill: #a9ca54"/>
            <polygon points="686.53 549.3 686.53 504.59 665.94 490.87 649.43 496.97 649.43 495.45 663.66 488.84 653.75 480.71 652.51 477.63 665.69 486.05 665.18 470.8 666.23 470.8 667.98 488.07 686.53 498.24 687.19 462.67 673.57 450.48 652.99 453.78 653.08 452.09 670.52 448.57 654 435.99 654 434.56 672.52 445.52 673.47 426.85 674.33 426.85 675.09 447.93 687.19 458.67 688.81 415.16 691.1 412.62 689.83 469.53 708.37 458.86 713.86 438.56 715.74 437.77 712.18 457.08 731.49 442.6 731.49 445.14 713.71 458.35 733.02 461.65 733.02 462.86 709.89 461.4 690.08 474.1 691.23 497.48 705.32 490.36 705.07 475.37 706.34 473.34 708.12 488.84 725.39 477.4 727.93 477.4 710.4 490.11 730.73 499 730.2 499.85 707.36 492.65 691.23 502.05 694.15 549.3 686.53 549.3" style="fill: #684c46"/>
            <path d="M733,462.86v-1.21l-19.31-3.3,17.78-13.21V442.6l-19.31,14.48,3.56-19.31-1.88.79-5.49,20.3-18.54,10.67,1.27-56.91-.68.75c0,.13,0,.25,0,.38,0,9.44-.07,18.93-.54,28.36-.46,9.18-.38,18.51-1.39,27.63-.6,5.45.18,79.57.18,79.57h5.46l-2.92-47.26,16.13-9.4,22.84,7.2.53-.85-20.32-8.89,17.52-12.71H725.4l-17.28,11.44-1.78-15.5-1.27,2,.25,15-14.09,7.12-1.15-23.38,19.82-12.7Z" style="fill: #442e2a"/>
          </g>
          <g>
            <path d="M582.72,496c0,23.82,20.57,33.94,41.44,33.94s41.41-9.51,41.41-33.34S645,443.68,624.16,443.68,582.72,472.19,582.72,496Z" style="fill: #86b43a"/>
            <path d="M605,514.4c9.19-1.86,17.3-6.23,24.73-11.83,7.06-5.31,15.32-11.05,19.84-18.84,3.87-6.65,4.13-13.73,4.22-21,7.12,10,11.77,22.54,11.77,33.86,0,23.83-20.54,33.34-41.41,33.34-13.83,0-27.53-4.45-35.2-14.4A69.22,69.22,0,0,0,605,514.4Z" style="fill: #93c148"/>
            <polygon points="627.68 551.95 627.68 518.5 643.07 508.24 655.42 512.8 655.42 511.66 644.78 506.72 652.19 500.64 653.12 498.33 643.26 504.63 643.64 493.23 642.86 493.23 641.55 506.15 627.68 513.75 627.18 487.14 637.37 478.03 652.76 480.5 652.69 479.24 639.65 476.6 652 467.19 652 466.12 638.16 474.32 637.44 460.35 636.8 460.35 636.23 476.12 627.18 484.15 625.97 451.61 624.26 449.71 625.21 492.28 611.34 484.29 607.23 469.11 605.83 468.52 608.49 482.96 594.04 472.13 594.04 474.03 607.35 483.91 592.9 486.39 592.9 487.29 610.2 486.2 625.02 495.7 624.16 513.18 613.62 507.86 613.81 496.65 612.86 495.13 611.53 506.72 598.6 498.17 596.7 498.17 609.82 507.67 594.61 514.32 595.01 514.96 612.1 509.57 624.16 516.6 621.98 551.95 627.68 551.95" style="fill: #684c46"/>
          </g>
          <path d="M592.9,487.29v-.9l14.45-2.48L594,474v-1.9L608.49,483l-2.66-14.45,1.4.59,4.11,15.18,13.87,8-1-42.57.51.56a2.83,2.83,0,0,0,0,.29c0,7.06.06,14.16.41,21.21.34,6.86.28,13.85,1,20.67.46,4.07-.13,59.51-.13,59.51H622l2.18-35.35-12.06-7L595,515l-.4-.64,15.21-6.65-13.12-9.5h1.9l12.93,8.55,1.33-11.59.95,1.52-.19,11.21,10.54,5.32L625,495.7l-14.82-9.5Z" style="fill: #442e2a"/>
          <path d="M379.05,483A2.08,2.08,0,1,1,377,481,2.08,2.08,0,0,1,379.05,483Z" style="fill: #e5c56e"/>
          <path d="M390.81,491.9a5.08,5.08,0,1,1-5.08-5.08A5.08,5.08,0,0,1,390.81,491.9Z" style="fill: #e5c56e"/>
          <path d="M401.18,489.76a2.94,2.94,0,1,1-2.94-2.94A2.94,2.94,0,0,1,401.18,489.76Z" style="fill: #e5c56e"/>
          <path d="M464.81,492a2.25,2.25,0,1,1-2.25-2.25A2.25,2.25,0,0,1,464.81,492Z" style="fill: #e5c56e"/>
          <path d="M492.12,497.2a4.5,4.5,0,1,1-4.49-4.5A4.49,4.49,0,0,1,492.12,497.2Z" style="fill: #e5c56e"/>
          <path d="M476.56,491.84a2.08,2.08,0,1,1-2.07-2.08A2.07,2.07,0,0,1,476.56,491.84Z" style="fill: #e5c56e"/>
          <path d="M546.41,488.22a5.19,5.19,0,1,1-5.19-5.18A5.19,5.19,0,0,1,546.41,488.22Z" style="fill: #e5c56e"/>
          <path d="M552.29,482.69a1.73,1.73,0,1,1-1.73-1.73A1.74,1.74,0,0,1,552.29,482.69Z" style="fill: #e5c56e"/>
          <path d="M565.77,483.56a2.59,2.59,0,1,1-2.59-2.6A2.59,2.59,0,0,1,565.77,483.56Z" style="fill: #e5c56e"/>
          <path d="M173,498.53A1.56,1.56,0,1,1,171.4,497,1.56,1.56,0,0,1,173,498.53Z" style="fill: #dfde9f"/>
          <path d="M184.71,502.81a3.29,3.29,0,1,1-3.28-3.29A3.28,3.28,0,0,1,184.71,502.81Z" style="fill: #dfde9f"/>
          <path d="M193,503.59a1.9,1.9,0,1,1-1.9-1.9A1.9,1.9,0,0,1,193,503.59Z" style="fill: #dfde9f"/>
          <path d="M255.6,505.23a2.42,2.42,0,1,1-2.42-2.42A2.41,2.41,0,0,1,255.6,505.23Z" style="fill: #dfde9f"/>
          <path d="M262.52,504.11a2.42,2.42,0,1,1-2.42-2.42A2.42,2.42,0,0,1,262.52,504.11Z" style="fill: #dfde9f"/>
          <circle cx="267.36" cy="505.49" r="1.38" style="fill: #dfde9f"/>
          <path d="M298.83,503.77a2.08,2.08,0,1,1-2.08-2.08A2.08,2.08,0,0,1,298.83,503.77Z" style="fill: #dfde9f"/>
          <path d="M304.36,500.6a2.08,2.08,0,1,1-2.08-2.07A2.08,2.08,0,0,1,304.36,500.6Z" style="fill: #dfde9f"/>
          <g>
            <polygon points="557.51 545.8 557.51 499.23 512.84 459.57 468.36 499.23 468.36 546 557.51 545.8" style="fill: #f8f4c5"/>
            <path d="M503,483.93a118.46,118.46,0,0,1,30.55,8.34,123.4,123.4,0,0,1,24.18,13.53v-6.57l-46-39.66-35.27,30.5C485,486.33,492.83,482.61,503,483.93Z" style="fill: #ecedb1;opacity: 0.9"/>
            <polygon points="512.96 457.16 460.71 499.23 468.83 499.23 512.96 464.17 512.96 457.16" style="fill: #684c46"/>
            <polygon points="512.96 457.16 565.21 499.23 557.09 499.23 512.96 464.17 512.96 457.16" style="fill: #442e2a"/>
            <g>
              <rect x="476.04" y="506.55" width="26.2" height="27.3" style="fill: #f5ee94"/>
              <path d="M487.71,506a18,18,0,0,1-2.58,9.41c-2.83,4.57-5.49,6-5.49,6s2.71,2.84,3.39,5.68,1.52,7.27,1.52,7.27h-7.83L476,506Z" style="fill: #d2796e"/>
              <path d="M483.31,512.2s-3.21,8.89-4.4,8.79S483.31,512.2,483.31,512.2Z" style="fill: #bb645b"/>
              <path d="M478.74,512.2s-.06,8.75-.66,8.79S478.74,512.2,478.74,512.2Z" style="fill: #bb645b"/>
              <path d="M479.13,531.92s-1.95-9.24-.89-9.79S479.13,531.92,479.13,531.92Z" style="fill: #bb645b"/>
              <path d="M483,529.52s-4.55-7.47-4.07-7.82S483,529.52,483,529.52Z" style="fill: #bb645b"/>
              <path d="M490.67,506a18,18,0,0,0,2.58,9.41c2.83,4.57,5.49,6,5.49,6s-2.71,2.84-3.39,5.68-1.52,7.27-1.52,7.27h7.83l.68-28.4Z" style="fill: #d2796e"/>
              <path d="M495.07,512.2s3.21,8.89,4.4,8.79S495.07,512.2,495.07,512.2Z" style="fill: #bb645b"/>
              <path d="M499.64,512.2s.06,8.75.65,8.79S499.64,512.2,499.64,512.2Z" style="fill: #bb645b"/>
              <path d="M499.25,531.92s1.95-9.24.89-9.79S499.25,531.92,499.25,531.92Z" style="fill: #bb645b"/>
              <path d="M495.37,529.52s4.55-7.47,4.07-7.82S495.37,529.52,495.37,529.52Z" style="fill: #bb645b"/>
              <g>
                <path d="M474.94,505.45V535h28.4v-29.5Zm26.2,27.3H489.72V520.2H487.8v12.55H477.14V520.2H487.8v-1.92H477.14V507.65h24Z" style="fill: #684c46"/>
                <path d="M475.13,505.45a6.78,6.78,0,0,1,2,2.38v-.18H487.8V520.2h13.51l.05-1.93H489.72V507.65h11.42v25.1h-.54a6.41,6.41,0,0,1,2.49,2.2h.25v-29.5Z" style="fill: #442e2a"/>
              </g>
            </g>
            <rect x="512.93" y="504.3" width="22.62" height="41.7" style="fill: #442e2a"/>
            <rect x="514.47" y="506" width="19.45" height="40" style="fill: #684c46"/>
            <rect x="516.21" y="507.57" width="3.61" height="19.44" style="fill: #442e2a"/>
            <rect x="520.27" y="507.57" width="3.61" height="19.44" style="fill: #442e2a"/>
            <rect x="524.34" y="507.57" width="3.61" height="19.44" style="fill: #442e2a"/>
            <rect x="528.41" y="507.57" width="3.61" height="19.44" style="fill: #442e2a"/>
            <rect x="516.21" y="529.52" width="3.61" height="14.54" style="fill: #442e2a"/>
            <rect x="520.27" y="529.52" width="3.61" height="14.54" style="fill: #442e2a"/>
            <rect x="524.34" y="529.52" width="3.61" height="14.54" style="fill: #442e2a"/>
            <rect x="528.41" y="529.52" width="3.61" height="14.54" style="fill: #442e2a"/>
            <g>
              <path d="M544,522.73a.86.86,0,0,1-.86.87h0a.87.87,0,0,1-.87-.87h0a.87.87,0,0,1,.87-.87h0a.86.86,0,0,1,.86.87Z" style="fill: #e87464"/>
              <path d="M549.37,521.56a.85.85,0,0,1-.86.86h0a.86.86,0,0,1-.87-.86h0a.87.87,0,0,1,.87-.87h0a.86.86,0,0,1,.86.87Z" style="fill: #e87464"/>
              <path d="M547.5,523.43a.86.86,0,0,1-.86.87h0a.87.87,0,0,1-.87-.87h0a.87.87,0,0,1,.87-.87h0a.86.86,0,0,1,.86.87Z" style="fill: #e87464"/>
              <path d="M552.42,523.66a.87.87,0,0,1-.87.87h0a.87.87,0,0,1-.87-.87h0a.87.87,0,0,1,.87-.86h0a.87.87,0,0,1,.87.86Z" style="fill: #e87464"/>
              <path d="M541.83,523.43a.86.86,0,0,1-.86.87h0a.87.87,0,0,1-.87-.87h0a.87.87,0,0,1,.87-.87h0a.86.86,0,0,1,.86.87Z" style="fill: #e87464"/>
              <path d="M545,521.67a.5.5,0,0,1-.5.5h0a.5.5,0,0,1-.51-.5h0a.5.5,0,0,1,.51-.5h0a.5.5,0,0,1,.5.5Z" style="fill: #e9503f"/>
              <path d="M545,524a.5.5,0,0,1-.5.5h0a.5.5,0,0,1-.51-.5h0a.5.5,0,0,1,.51-.5h0a.5.5,0,0,1,.5.5Z" style="fill: #e9503f"/>
              <path d="M549.88,522.93a.51.51,0,0,1-.51.5h0a.51.51,0,0,1-.5-.5h0a.51.51,0,0,1,.5-.51h0a.51.51,0,0,1,.51.51Z" style="fill: #e9503f"/>
              <path d="M553.66,523.93a.5.5,0,0,1-.5.5h0a.5.5,0,0,1-.51-.5h0a.5.5,0,0,1,.51-.5h0a.5.5,0,0,1,.5.5Z" style="fill: #e9503f"/>
              <polygon points="541.11 524.96 540.97 523.81 540.86 524.96 541.11 524.96" style="fill: #82bf73"/>
              <polygon points="543.09 522.8 542.91 524.77 543.14 524.77 543.09 522.8" style="fill: #82bf73"/>
              <polygon points="544.46 524.03 544.52 524.88 544.32 524.88 544.46 524.03" style="fill: #82bf73"/>
              <polygon points="544.52 521.67 544.61 523.36 544.46 523.36 544.52 521.67" style="fill: #82bf73"/>
              <polygon points="546.64 523.36 546.5 524.77 546.75 524.77 546.64 523.36" style="fill: #82bf73"/>
              <polygon points="548.51 521.56 548.21 524.77 548.64 524.77 548.51 521.56" style="fill: #82bf73"/>
              <polygon points="549.55 524.88 549.23 524.88 549.39 523.16 549.55 524.88" style="fill: #82bf73"/>
              <polygon points="551.55 523.6 551.46 524.88 551.61 524.88 551.55 523.6" style="fill: #82bf73"/>
              <polygon points="553.15 523.93 553.3 524.88 553.15 524.88 553.15 523.93" style="fill: #82bf73"/>
            </g>
            <g>
              <rect x="539.16" y="524.77" width="16.02" height="0.87" style="fill: #442e2a"/>
              <g>
                <rect x="539.58" y="525.31" width="15.16" height="4.89" style="fill: #442e2a"/>
                <rect x="540.53" y="526.01" width="13.28" height="3.48" style="fill: #684c46"/>
                <rect x="541.63" y="525.31" width="0.65" height="4.68" style="fill: #442e2a"/>
                <rect x="542.94" y="525.31" width="0.65" height="4.68" style="fill: #442e2a"/>
                <rect x="544.25" y="525.31" width="0.65" height="4.68" style="fill: #442e2a"/>
                <rect x="545.57" y="525.31" width="0.66" height="4.68" style="fill: #442e2a"/>
                <rect x="546.88" y="525.31" width="0.66" height="4.68" style="fill: #442e2a"/>
                <rect x="548.19" y="525.31" width="0.66" height="4.68" style="fill: #442e2a"/>
                <rect x="549.5" y="525.31" width="0.66" height="4.68" style="fill: #442e2a"/>
                <rect x="550.81" y="525.31" width="0.66" height="4.68" style="fill: #442e2a"/>
                <rect x="552.12" y="525.31" width="0.65" height="4.68" style="fill: #442e2a"/>
              </g>
            </g>
          </g>
          <g>
            <polygon points="461.37 524.44 463.41 522.92 465.45 524.44 465.45 545.59 461.37 545.59 461.37 524.44" style="fill: #fdfae2"/>
            <polygon points="452.67 524.44 454.71 522.92 456.76 524.44 456.76 545.59 452.67 545.59 452.67 524.44" style="fill: #fdfae2"/>
            <polygon points="443.82 524.44 445.87 522.92 447.91 524.44 447.91 545.59 443.82 545.59 443.82 524.44" style="fill: #fdfae2"/>
            <polygon points="434.98 524.44 437.02 522.92 439.06 524.44 439.06 545.59 434.98 545.59 434.98 524.44" style="fill: #fdfae2"/>
            <polygon points="425.98 524.44 428.03 522.92 430.07 524.44 430.07 545.59 425.98 545.59 425.98 524.44" style="fill: #fdfae2"/>
            <rect x="427.4" y="528.72" width="40.96" height="1.34" style="fill: #fdfae2"/>
            <rect x="427.4" y="537.64" width="40.96" height="1.34" style="fill: #fdfae2"/>
          </g>
          <path d="M376.8,419.65a5.43,5.43,0,0,0,.13-1.22,5.52,5.52,0,0,0-5.4-5.65h-6.81a8.9,8.9,0,0,0-8.43-6.42h-12.9a8.91,8.91,0,0,0-8.42,6.42h-1.9a5.53,5.53,0,0,0-5.4,5.65,6.43,6.43,0,0,0,.15,1.32,7.21,7.21,0,0,0-5.5,7.12,7.14,7.14,0,0,0,7,7.28h46.56a7.31,7.31,0,0,0,.94-14.5Z" style="fill: #79c7cb"/>
          <path d="M431.62,441h-3.87a3.57,3.57,0,0,0,.26-1.35,3.7,3.7,0,0,0-3.69-3.7h-2.09a4.52,4.52,0,0,0-4.14-6.31H396.27a4.52,4.52,0,0,0-4.14,6.31h-6.05a3.7,3.7,0,0,0-3.7,3.7,3.77,3.77,0,0,0,.26,1.35h-3.15a4.15,4.15,0,0,0,0,8.3h52.13a4.15,4.15,0,0,0,0-8.3Z" style="fill: #def0f6"/>
          <path d="M430.77,435.72h-3.35a3.18,3.18,0,0,0-3-4.37h-1.81a3.85,3.85,0,0,0,.32-1.56,3.89,3.89,0,0,0-3.9-3.9h-1.58a5.55,5.55,0,0,1,1.49,6.46h.11a4.83,4.83,0,0,1,5,4.5c3.63.08,5.23,3.24,4.82,6.06h1.9a3.6,3.6,0,0,0,0-7.19Z" style="fill: #a6d8e2;opacity: 0.30000000000000004"/>
          <path d="M180.09,379.36a4.66,4.66,0,0,1-.12-1.06,4.79,4.79,0,0,1,4.68-4.89h5.9a7.71,7.71,0,0,1,7.29-5.56H209a7.71,7.71,0,0,1,7.29,5.56h1.65a4.87,4.87,0,0,1,4.54,6,6.25,6.25,0,0,1,4.76,6.16,6.17,6.17,0,0,1-6,6.31H180.91a6.33,6.33,0,0,1-.82-12.55Z" style="fill: #9bd3d7"/>
          <path d="M132.64,397.85H136a3.09,3.09,0,0,1-.23-1.17,3.2,3.2,0,0,1,3.2-3.2h1.81a3.9,3.9,0,0,1,3.58-5.47h18.89a3.92,3.92,0,0,1,3.58,5.47h5.24a3.2,3.2,0,0,1,3.2,3.2,3.09,3.09,0,0,1-.23,1.17h2.73a3.59,3.59,0,1,1,0,7.18H132.64a3.59,3.59,0,0,1,0-7.18Z" style="fill: #def0f6"/>
          <path d="M601.27,386a3.93,3.93,0,0,0,.1-.92,4.13,4.13,0,0,0-4-4.21h-5.08a6.64,6.64,0,0,0-6.29-4.79h-9.64a6.65,6.65,0,0,0-6.29,4.79h-1.41a4.13,4.13,0,0,0-4,4.21,4.62,4.62,0,0,0,.11,1,5.4,5.4,0,0,0-4.1,5.32,5.33,5.33,0,0,0,5.21,5.44h34.77a5.46,5.46,0,0,0,.7-10.83Z" style="fill: #9bd3d7"/>
          <path d="M642.22,401.94h-2.9a2.6,2.6,0,0,0,.2-1,2.77,2.77,0,0,0-2.76-2.76H635.2a3.37,3.37,0,0,0-3.09-4.71h-16.3a3.37,3.37,0,0,0-3.09,4.71H608.2a2.76,2.76,0,0,0-2.76,2.76,2.79,2.79,0,0,0,.19,1h-2.35a3.1,3.1,0,0,0,0,6.2h38.94a3.1,3.1,0,0,0,0-6.2Z" style="fill: #def0f6"/>
          <polygon points="257.68 548.99 247.04 475.41 227.88 475.41 218 548.32 257.68 548.99" style="fill: #f8f4c5"/>
          <path d="M232.78,504a2.23,2.23,0,1,1-2.23-2.24A2.23,2.23,0,0,1,232.78,504Z" style="fill: #e1e2a9"/>
          <path d="M233.29,500a1.15,1.15,0,1,1-1.15-1.15A1.16,1.16,0,0,1,233.29,500Z" style="fill: #e1e2a9"/>
          <path d="M235.83,503.67a1.15,1.15,0,1,1-1.14-1.15A1.14,1.14,0,0,1,235.83,503.67Z" style="fill: #e1e2a9"/>
          <path d="M245.92,516a1.57,1.57,0,0,1,2.91,1.17,1.57,1.57,0,1,1-2.91-1.17Z" style="fill: #e1e2a9"/>
          <path d="M244.54,518.43a.82.82,0,0,1,1.05-.45.81.81,0,0,1,.45,1,.8.8,0,0,1-1,.45A.8.8,0,0,1,244.54,518.43Z" style="fill: #e1e2a9"/>
          <path d="M243.84,515.36a.81.81,0,0,1,1-.46.81.81,0,0,1-.6,1.51A.8.8,0,0,1,243.84,515.36Z" style="fill: #e1e2a9"/>
          <polygon points="223.7 493.73 225.91 475.41 229.67 470 237.84 467.92 237.84 493.73 223.7 493.73" style="fill: #5b423f"/>
          <polygon points="251.97 493.73 249.77 475.41 246.01 470 237.84 467.92 237.84 493.73 251.97 493.73" style="fill: #4f322f"/>
          <path d="M244.8,545V524.72a7,7,0,0,0-13.92,0V545Z" style="fill: #5b423f"/>
          <path d="M242.05,528.44c.9,4.91,2.22,9.78,2.75,14.75V524.72A7,7,0,0,0,231,523.51C235.62,521.1,241,522.78,242.05,528.44Z" style="fill: #4f322f"/>
          <g>
            <rect x="212.75" y="443.22" width="8.57" height="43.09" transform="translate(-277.92 330.13) rotate(-49.75)" style="fill: #695352"/>
            <g>
              <rect x="198.34" y="451.28" width="6.79" height="1.05" transform="translate(-273.32 313.4) rotate(-49.7)" style="fill: #3a2120"/>
              <rect x="199.69" y="452.43" width="6.79" height="1.05" transform="translate(-273.71 314.83) rotate(-49.7)" style="fill: #3a2120"/>
              <rect x="201.04" y="453.57" width="6.78" height="1.05" transform="translate(-274.39 317.25) rotate(-49.81)" style="fill: #3a2120"/>
              <rect x="202.39" y="454.71" width="6.79" height="1.05" transform="translate(-274.62 318.1) rotate(-49.74)" style="fill: #3a2120"/>
              <rect x="203.74" y="455.86" width="6.79" height="1.05" transform="translate(-274.82 318.87) rotate(-49.66)" style="fill: #3a2120"/>
              <rect x="205.09" y="457" width="6.79" height="1.05" transform="translate(-275.41 320.97) rotate(-49.74)" style="fill: #3a2120"/>
              <rect x="206.45" y="458.15" width="6.78" height="1.05" transform="translate(-275.88 322.71) rotate(-49.78)" style="fill: #3a2120"/>
              <rect x="207.8" y="459.29" width="6.79" height="1.05" transform="translate(-276.17 323.77) rotate(-49.73)" style="fill: #3a2120"/>
              <rect x="209.15" y="460.43" width="6.79" height="1.05" transform="translate(-276.56 325.17) rotate(-49.73)" style="fill: #3a2120"/>
              <rect x="210.5" y="461.58" width="6.78" height="1.05" transform="translate(-276.99 326.75) rotate(-49.75)" style="fill: #3a2120"/>
              <rect x="211.85" y="462.72" width="6.79" height="1.05" transform="translate(-277.3 327.85) rotate(-49.71)" style="fill: #3a2120"/>
              <polygon points="214.81 467.32 214 466.64 218.39 461.46 219.19 462.14 214.81 467.32" style="fill: #3a2120"/>
              <rect x="214.56" y="465.01" width="6.79" height="1.05" transform="translate(-277.99 330.35) rotate(-49.66)" style="fill: #3a2120"/>
              <rect x="215.91" y="466.16" width="6.78" height="1.05" transform="translate(-278.84 333.49) rotate(-49.86)" style="fill: #3a2120"/>
              <rect x="217.26" y="467.3" width="6.79" height="1.05" transform="translate(-278.97 333.93) rotate(-49.75)" style="fill: #3a2120"/>
              <rect x="218.61" y="468.44" width="6.78" height="1.05" transform="translate(-279.44 335.64) rotate(-49.78)" style="fill: #3a2120"/>
              <rect x="219.96" y="469.59" width="6.79" height="1.05" transform="translate(-279.91 337.39) rotate(-49.81)" style="fill: #3a2120"/>
              <rect x="221.31" y="470.73" width="6.78" height="1.05" transform="matrix(0.65, -0.76, 0.76, 0.65, -280.23, 338.55)" style="fill: #3a2120"/>
              <polygon points="224.27 475.33 223.46 474.65 227.85 469.47 228.65 470.15 224.27 475.33" style="fill: #3a2120"/>
              <rect x="224.02" y="473.02" width="6.79" height="1.05" transform="translate(-280.92 341.01) rotate(-49.73)" style="fill: #3a2120"/>
              <rect x="225.37" y="474.16" width="6.79" height="1.05" transform="translate(-281.33 342.52) rotate(-49.74)" style="fill: #3a2120"/>
              <rect x="226.72" y="475.31" width="6.79" height="1.05" transform="translate(-281.71 343.88) rotate(-49.73)" style="fill: #3a2120"/>
              <rect x="228.07" y="476.45" width="6.79" height="1.05" transform="translate(-282.01 344.96) rotate(-49.7)" style="fill: #3a2120"/>
            </g>
          </g>
          <g>
            <rect x="196.81" y="497.41" width="43.09" height="8.57" transform="translate(-287.16 292.33) rotate(-43.98)" style="fill: #695352"/>
            <g>
              <rect x="203.4" y="512.22" width="1.05" height="6.79" transform="translate(-300.74 285.92) rotate(-43.95)" style="fill: #3a2120"/>
              <rect x="204.67" y="511" width="1.05" height="6.78" transform="translate(-299.53 286.46) rotate(-43.95)" style="fill: #3a2120"/>
              <rect x="205.94" y="509.77" width="1.05" height="6.79" transform="translate(-298.61 287.66) rotate(-44.02)" style="fill: #3a2120"/>
              <rect x="207.22" y="508.53" width="1.05" height="6.79" transform="translate(-297.1 287.51) rotate(-43.95)" style="fill: #3a2120"/>
              <rect x="208.49" y="507.31" width="1.05" height="6.79" transform="translate(-295.62 287.45) rotate(-43.88)" style="fill: #3a2120"/>
              <rect x="209.77" y="506.08" width="1.05" height="6.79" transform="translate(-294.81 288.89) rotate(-43.98)" style="fill: #3a2120"/>
              <rect x="211.04" y="504.85" width="1.05" height="6.79" transform="translate(-293.91 290.15) rotate(-44.06)" style="fill: #3a2120"/>
              <rect x="212.31" y="503.62" width="1.05" height="6.79" transform="translate(-292.42 290.06) rotate(-43.99)" style="fill: #3a2120"/>
              <rect x="213.59" y="502.39" width="1.05" height="6.79" transform="translate(-291.06 290.24) rotate(-43.95)" style="fill: #3a2120"/>
              <polygon points="218.12 506.63 217.37 507.36 212.65 502.48 213.41 501.74 218.12 506.63" style="fill: #3a2120"/>
              <rect x="216.14" y="499.93" width="1.05" height="6.79" transform="translate(-288.77 291.62) rotate(-43.98)" style="fill: #3a2120"/>
              <rect x="217.41" y="498.7" width="1.05" height="6.79" transform="translate(-287.28 291.49) rotate(-43.91)" style="fill: #3a2120"/>
              <rect x="218.69" y="497.47" width="1.05" height="6.79" transform="translate(-286.2 292.37) rotate(-43.95)" style="fill: #3a2120"/>
              <rect x="219.96" y="496.24" width="1.05" height="6.78" transform="translate(-285.28 293.61) rotate(-44.02)" style="fill: #3a2120"/>
              <rect x="221.23" y="495.01" width="1.05" height="6.79" transform="translate(-284.05 294.11) rotate(-44.02)" style="fill: #3a2120"/>
              <rect x="222.51" y="493.78" width="1.05" height="6.79" transform="translate(-282.71 294.32) rotate(-43.98)" style="fill: #3a2120"/>
              <rect x="223.78" y="492.55" width="1.05" height="6.79" transform="translate(-281.79 295.59) rotate(-44.07)" style="fill: #3a2120"/>
              <rect x="225.06" y="491.32" width="1.05" height="6.79" transform="translate(-280.43 295.76) rotate(-44.02)" style="fill: #3a2120"/>
              <rect x="226.33" y="490.09" width="1.05" height="6.78" transform="translate(-278.96 295.64) rotate(-43.95)" style="fill: #3a2120"/>
              <rect x="227.6" y="488.86" width="1.05" height="6.79" transform="translate(-277.75 296.18) rotate(-43.95)" style="fill: #3a2120"/>
              <rect x="228.88" y="487.63" width="1.05" height="6.79" transform="translate(-276.64 296.99) rotate(-43.98)" style="fill: #3a2120"/>
              <rect x="230.15" y="486.4" width="1.05" height="6.78" transform="translate(-275.58 297.92) rotate(-44.02)" style="fill: #3a2120"/>
              <rect x="231.43" y="485.17" width="1.05" height="6.78" transform="translate(-274.1 297.76) rotate(-43.95)" style="fill: #3a2120"/>
            </g>
          </g>
          <g>
            <rect x="255.21" y="478.99" width="8.57" height="43.09" transform="translate(-290.19 375.19) rotate(-49.75)" style="fill: #695352"/>
            <g>
              <rect x="271.4" y="512.96" width="6.78" height="1.05" transform="translate(-294.72 391.72) rotate(-49.78)" style="fill: #3a2120"/>
              <rect x="270.05" y="511.81" width="6.79" height="1.05" transform="translate(-294.26 389.97) rotate(-49.75)" style="fill: #3a2120"/>
              <rect x="268.7" y="510.67" width="6.79" height="1.05" transform="translate(-294.01 389.2) rotate(-49.81)" style="fill: #3a2120"/>
              <rect x="267.35" y="509.53" width="6.79" height="1.05" transform="translate(-293.36 386.59) rotate(-49.7)" style="fill: #3a2120"/>
              <rect x="266" y="508.38" width="6.79" height="1.05" transform="translate(-292.97 385.16) rotate(-49.7)" style="fill: #3a2120"/>
              <rect x="264.65" y="507.24" width="6.79" height="1.05" transform="translate(-292.75 384.54) rotate(-49.78)" style="fill: #3a2120"/>
              <rect x="263.3" y="506.09" width="6.79" height="1.05" transform="translate(-292.42 383.41) rotate(-49.81)" style="fill: #3a2120"/>
              <rect x="261.94" y="504.95" width="6.79" height="1.05" transform="translate(-291.79 380.9) rotate(-49.7)" style="fill: #3a2120"/>
              <rect x="260.59" y="503.8" width="6.79" height="1.05" transform="translate(-291.46 379.76) rotate(-49.73)" style="fill: #3a2120"/>
              <rect x="259.24" y="502.66" width="6.78" height="1.05" transform="translate(-291.1 378.48) rotate(-49.75)" style="fill: #3a2120"/>
              <rect x="257.89" y="501.52" width="6.78" height="1.05" transform="translate(-290.62 376.67) rotate(-49.71)" style="fill: #3a2120"/>
              <rect x="256.54" y="500.37" width="6.79" height="1.05" transform="translate(-290.21 375.16) rotate(-49.7)" style="fill: #3a2120"/>
              <rect x="255.19" y="499.23" width="6.79" height="1.05" transform="translate(-289.81 373.72) rotate(-49.7)" style="fill: #3a2120"/>
              <rect x="253.83" y="498.08" width="6.78" height="1.05" transform="translate(-289.77 373.84) rotate(-49.86)" style="fill: #3a2120"/>
              <rect x="252.48" y="496.94" width="6.79" height="1.05" transform="translate(-289.06 371.01) rotate(-49.72)" style="fill: #3a2120"/>
              <rect x="251.13" y="495.8" width="6.78" height="1.05" transform="translate(-288.8 370.17) rotate(-49.78)" style="fill: #3a2120"/>
              <rect x="249.78" y="494.65" width="6.79" height="1.05" transform="translate(-288.41 368.73) rotate(-49.78)" style="fill: #3a2120"/>
              <rect x="248.43" y="493.51" width="6.78" height="1.05" transform="matrix(0.65, -0.76, 0.76, 0.65, -288.02, 367.33)" style="fill: #3a2120"/>
              <rect x="247.08" y="492.36" width="6.79" height="1.05" transform="translate(-287.43 365.07) rotate(-49.7)" style="fill: #3a2120"/>
              <rect x="245.73" y="491.22" width="6.79" height="1.05" transform="translate(-287.12 364.01) rotate(-49.73)" style="fill: #3a2120"/>
              <rect x="244.37" y="490.08" width="6.79" height="1.05" transform="translate(-286.83 362.98) rotate(-49.78)" style="fill: #3a2120"/>
              <rect x="243.02" y="488.93" width="6.79" height="1.05" transform="translate(-286.26 360.81) rotate(-49.7)" style="fill: #3a2120"/>
              <rect x="241.67" y="487.79" width="6.78" height="1.05" transform="translate(-285.96 359.78) rotate(-49.74)" style="fill: #3a2120"/>
            </g>
          </g>
          <g>
            <rect x="236.64" y="459.31" width="43.09" height="8.57" transform="translate(-249.53 309.3) rotate(-43.98)" style="fill: #695352"/>
            <g>
              <rect x="272.08" y="446.28" width="1.05" height="6.78" transform="translate(-235.74 315.12) rotate(-43.95)" style="fill: #3a2120"/>
              <rect x="270.8" y="447.51" width="1.05" height="6.79" transform="translate(-236.95 314.58) rotate(-43.95)" style="fill: #3a2120"/>
              <rect x="269.53" y="448.74" width="1.05" height="6.78" transform="translate(-238.34 314.7) rotate(-44.02)" style="fill: #3a2120"/>
              <rect x="268.26" y="449.97" width="1.05" height="6.79" transform="translate(-239.55 314.16) rotate(-44.02)" style="fill: #3a2120"/>
              <rect x="266.98" y="451.2" width="1.05" height="6.78" transform="translate(-240.4 312.32) rotate(-43.88)" style="fill: #3a2120"/>
              <rect x="265.71" y="452.43" width="1.05" height="6.79" transform="translate(-241.88 312.72) rotate(-43.98)" style="fill: #3a2120"/>
              <rect x="264.43" y="453.66" width="1.05" height="6.78" transform="translate(-243.29 312.88) rotate(-44.06)" style="fill: #3a2120"/>
              <rect x="263.16" y="454.89" width="1.05" height="6.79" transform="translate(-244.12 311.01) rotate(-43.91)" style="fill: #3a2120"/>
              <rect x="261.89" y="456.12" width="1.05" height="6.79" transform="translate(-245.62 311.46) rotate(-44.02)" style="fill: #3a2120"/>
              <polygon points="258.4 458.66 259.16 457.94 263.87 462.82 263.12 463.55 258.4 458.66" style="fill: #3a2120"/>
              <rect x="259.34" y="458.58" width="1.05" height="6.79" transform="translate(-247.93 310.02) rotate(-43.98)" style="fill: #3a2120"/>
              <rect x="258.06" y="459.81" width="1.05" height="6.79" transform="translate(-248.95 308.85) rotate(-43.91)" style="fill: #3a2120"/>
              <rect x="256.79" y="461.04" width="1.05" height="6.79" transform="translate(-250.37 308.98) rotate(-43.99)" style="fill: #3a2120"/>
              <rect x="255.51" y="462.27" width="1.05" height="6.78" transform="translate(-251.66 308.7) rotate(-44.02)" style="fill: #3a2120"/>
              <rect x="254.24" y="463.5" width="1.05" height="6.79" transform="translate(-252.99 308.54) rotate(-44.06)" style="fill: #3a2120"/>
              <rect x="252.97" y="464.73" width="1.05" height="6.79" transform="translate(-253.98 307.29) rotate(-43.98)" style="fill: #3a2120"/>
              <rect x="251.69" y="465.96" width="1.05" height="6.79" transform="translate(-255.42 307.47) rotate(-44.06)" style="fill: #3a2120"/>
              <rect x="250.42" y="467.19" width="1.05" height="6.78" transform="translate(-256.54 306.64) rotate(-44.03)" style="fill: #3a2120"/>
              <rect x="249.14" y="468.42" width="1.05" height="6.79" transform="translate(-257.64 305.74) rotate(-43.99)" style="fill: #3a2120"/>
              <rect x="247.87" y="469.65" width="1.05" height="6.79" transform="translate(-258.95 305.52) rotate(-44.02)" style="fill: #3a2120"/>
              <rect x="246.6" y="470.88" width="1.05" height="6.79" transform="translate(-260.16 304.96) rotate(-44.02)" style="fill: #3a2120"/>
              <rect x="245.32" y="472.1" width="1.05" height="6.79" transform="translate(-261.49 304.78) rotate(-44.06)" style="fill: #3a2120"/>
              <rect x="244.05" y="473.33" width="1.05" height="6.78" transform="translate(-262.47 303.54) rotate(-43.98)" style="fill: #3a2120"/>
            </g>
          </g>
          <g>
            <polygon points="210.96 524.29 213 522.77 215.04 524.29 215.04 545.45 210.96 545.45 210.96 524.29" style="fill: #fdfae2"/>
            <polygon points="202.26 524.29 204.3 522.77 206.35 524.29 206.35 545.45 202.26 545.45 202.26 524.29" style="fill: #fdfae2"/>
            <polygon points="193.41 524.29 195.46 522.77 197.5 524.29 197.5 545.45 193.41 545.45 193.41 524.29" style="fill: #fdfae2"/>
            <polygon points="184.57 524.29 186.61 522.77 188.66 524.29 188.66 545.45 184.57 545.45 184.57 524.29" style="fill: #fdfae2"/>
            <polygon points="175.57 524.29 177.62 522.77 179.66 524.29 179.66 545.45 175.57 545.45 175.57 524.29" style="fill: #fdfae2"/>
            <rect x="176.99" y="528.57" width="45.86" height="1.34" style="fill: #fdfae2"/>
            <rect x="176.99" y="537.49" width="43.31" height="1.34" style="fill: #fdfae2"/>
          </g>
          <g>
            <polygon points="265.79 524.29 263.74 522.77 261.7 524.29 261.7 545.45 265.79 545.45 265.79 524.29" style="fill: #fdfae2"/>
            <polygon points="274.49 524.29 272.44 522.77 270.4 524.29 270.4 545.45 274.49 545.45 274.49 524.29" style="fill: #fdfae2"/>
            <polygon points="283.33 524.29 281.29 522.77 279.24 524.29 279.24 545.45 283.33 545.45 283.33 524.29" style="fill: #fdfae2"/>
            <polygon points="292.18 524.29 290.13 522.77 288.09 524.29 288.09 545.45 292.18 545.45 292.18 524.29" style="fill: #fdfae2"/>
            <polygon points="301.17 524.29 299.13 522.77 297.08 524.29 297.08 545.45 301.17 545.45 301.17 524.29" style="fill: #fdfae2"/>
            <rect x="253.9" y="528.57" width="45.86" height="1.34" style="fill: #fdfae2"/>
            <rect x="256.44" y="537.49" width="43.31" height="1.34" style="fill: #fdfae2"/>
          </g>
          <rect x="49.51" y="544.96" width="703.34" height="26.45" style="fill: #97c151"/>
          <path d="M49.51,545v12.57A89.18,89.18,0,0,0,60,559c4-.08,8-.24,11.91-.59,8.38-.74,16.3-2.78,24.52-4.39,14.13-2.78,28.9-3.73,42.53,1.74,12.24,4.91,24,8.36,36.82,9.57,8.71-1.77,17.45-3.38,26.36-3.49a4.7,4.7,0,0,1,2.62.7c15.45-.12,30.7-2.68,46.11-3.66,8.06-.52,16.24-.76,24.26.32,7.34,1,14.3,3.52,21.58,4.56s14.67.26,22-.08a46,46,0,0,1,15.81-2.5c7.76.16,15.39,1.65,23.13,2,9.8.41,18.39-2.91,27.94-4.38,8.27-1.27,15.61,1,23.4,3.44,15,4.67,28-.84,42.8-3.13,15.72-2.42,31,2.65,46.57,3.87,15.35,1.21,29.49-5.37,44.73-5.26s30.26,2.32,45.41-.15c14-2.28,27.69-5.09,41.83-2.16,16.24,3.38,31.61,7.71,48.31,4,13.78-3.06,26.1-5.61,39.89-.76,11.48,4,22.19,9.86,34.37,10.72V545Z" style="fill: #8aad4a;opacity: 0.8"/>
          <rect x="49.51" y="571.41" width="703.34" height="17.21" style="fill: #be9c40"/>
          <rect x="49.51" y="588.62" width="703.34" height="97.87" style="fill: #b2ce5f"/>
          <path d="M747.73,659.91c-12.53,4.71-25.4,10-38.71,12.06-15.38,2.36-30.52.81-45.8-1.49-16.12-2.42-31.87-4.65-48.17-2.59-14.81,1.88-29.31,5.7-44.14,7.48-14,1.69-28.37,1.11-42.45,1.1-13.39,0-26.8-.32-40.05-2.43-3.65-.58-5.24-6.37-2.29-8.67.6-.46,1.21-.92,1.83-1.37-9.65-1-19.49-4.61-27.92-7.5-7.93-2.71-16-5.89-24.37-7.07a137,137,0,0,0-33.85-.74c-31.08,3.32-60.46,15.07-91.26,19.93-31.8,5-64,2.64-95.45-3.42-16-3.07-31.8-6.91-47.57-10.93-14.65-3.73-29.55-6.66-43.89-11.51-13.89-4.7-27.15-10.89-38.8-19.89s-20.94-20.62-31.3-31.08a4.86,4.86,0,0,1-1.5-3.17H49.51v97.87H752.85V658Z" style="fill: #97c151;opacity: 0.7000000000000001"/>
          <path d="M215.27,641.81c0,1.67,30.47,3,68.06,3s68.06-1.35,68.06-3-30.47-3-68.06-3S215.27,640.14,215.27,641.81Z" style="fill: #8aad4a;opacity: 0.6000000000000001"/>
          <g>
            <g>
              <polygon points="277.55 581.83 283.85 600.35 308.95 600.35 313.84 605.17 313.84 623.48 247.84 623.48 247.84 620.11 247.84 600.35 247.82 581.83 277.55 581.83" style="fill: #af4040"/>
              <g>
                <path d="M237.57,623.77a18,18,0,1,0,18-18A18,18,0,0,0,237.57,623.77Z" style="fill: #363030"/>
                <path d="M247.05,623.77a8.56,8.56,0,1,0,8.56-8.56A8.56,8.56,0,0,0,247.05,623.77Z" style="fill: #5c5656"/>
              </g>
              <g>
                <path d="M295.91,629a12.83,12.83,0,1,0,12.83-12.83A12.84,12.84,0,0,0,295.91,629Z" style="fill: #363030"/>
                <path d="M302.66,629a6.09,6.09,0,1,0,6.08-6.09A6.09,6.09,0,0,0,302.66,629Z" style="fill: #5c5656"/>
              </g>
              <polygon points="280.83 601.31 275.73 584.94 264.5 584.94 264.5 601.31 280.83 601.31" style="fill: #da7d7d"/>
              <rect x="251.7" y="584.94" width="10.72" height="16.37" style="fill: #da7d7d"/>
              <rect x="296.92" y="596.29" width="6.53" height="4.06" style="fill: #4c211e"/>
              <rect x="299.25" y="584.94" width="1.87" height="12.43" style="fill: #4c211e"/>
              <polygon points="273.02 613.54 277.55 613.54 277.55 611.05 274.27 611.05 269.36 604.48 240.95 604.48 235.4 610.52 237.23 612.2 242.04 606.97 268.12 606.97 273.02 613.54" style="fill: #4c211e"/>
            </g>
            <g>
              <polygon points="310.08 605.62 310.91 605.62 306.35 601.05 305.52 601.06 310.08 605.62" style="fill: #da7d7d"/>
              <polygon points="307.59 605.62 308.43 605.62 303.86 601.05 303.03 601.06 307.59 605.62" style="fill: #da7d7d"/>
              <polygon points="305.11 605.62 305.94 605.62 301.38 601.05 300.54 601.06 305.11 605.62" style="fill: #da7d7d"/>
              <polygon points="302.62 605.62 303.45 605.62 298.89 601.05 298.06 601.06 302.62 605.62" style="fill: #da7d7d"/>
              <polygon points="300.13 605.62 300.97 605.62 296.4 601.05 295.57 601.06 300.13 605.62" style="fill: #da7d7d"/>
            </g>
          </g>
          <path d="M695.35,613.17c-3.92-1.42-9.54,2.48-11.56,4a22.93,22.93,0,0,0-8.08-4.5c-3.8-1-8.05,2.83-9.67,4.46a31.51,31.51,0,0,0-7.3-4c-3.92-1.42-9.55,2.48-11.57,4a22.93,22.93,0,0,0-8.08-4.5c-3.8-1-8.05,2.83-9.66,4.46a31.84,31.84,0,0,0-7.31-4c-3.92-1.42-9.54,2.48-11.57,4a22.87,22.87,0,0,0-8.07-4.5c-3.81-1-8.06,2.83-9.67,4.46a31.62,31.62,0,0,0-7.31-4c-3.92-1.42-9.54,2.48-11.57,4a22.78,22.78,0,0,0-8.07-4.5c-4.7-1.19-10.1,4.9-10.33,5.16l1.56,1.37c1.32-1.5,5.38-5.23,8.27-4.52,3.84,1,7.81,4.56,7.85,4.6l.67.61.69-.58c1.85-1.54,7.28-5.3,10.22-4.23a30.71,30.71,0,0,1,7.49,4.25l.65-.81.78.68c1.32-1.5,5.37-5.23,8.27-4.52,3.83,1,7.81,4.56,7.85,4.6l.66.61.7-.58c1.85-1.54,7.27-5.3,10.22-4.23a31,31,0,0,1,7.49,4.25l.64-.81.78.68c1.32-1.5,5.38-5.23,8.27-4.52,3.84,1,7.81,4.56,7.85,4.6l.67.61.7-.58c1.84-1.54,7.27-5.3,10.22-4.23a30.54,30.54,0,0,1,7.48,4.25l.65-.81.78.68c1.32-1.5,5.38-5.23,8.27-4.52,3.84,1,7.81,4.56,7.85,4.6l.67.61.69-.58c1.85-1.54,7.28-5.3,10.23-4.23a30.77,30.77,0,0,1,7.48,4.25l1.3-1.63A32.88,32.88,0,0,0,695.35,613.17Z" style="fill: #684c46"/>
          <path d="M695.35,623.55c-3.92-1.42-9.54,2.48-11.56,4a22.93,22.93,0,0,0-8.08-4.5c-3.8-1-8.05,2.83-9.67,4.46a31.18,31.18,0,0,0-7.3-4c-3.92-1.42-9.55,2.48-11.57,4a22.93,22.93,0,0,0-8.08-4.5c-3.8-1-8.05,2.83-9.66,4.46a31.5,31.5,0,0,0-7.31-4c-3.92-1.42-9.54,2.48-11.57,4a22.87,22.87,0,0,0-8.07-4.5c-3.81-1-8.06,2.83-9.67,4.46a31.29,31.29,0,0,0-7.31-4c-3.92-1.42-9.54,2.48-11.57,4a22.78,22.78,0,0,0-8.07-4.5c-4.7-1.19-10.1,4.91-10.33,5.17l1.56,1.36c1.32-1.5,5.38-5.22,8.27-4.52,3.84,1,7.81,4.57,7.85,4.6l.67.62.69-.58c1.85-1.54,7.28-5.31,10.22-4.23a30.49,30.49,0,0,1,7.49,4.24l.65-.81.78.68c1.32-1.5,5.37-5.22,8.27-4.52,3.83,1,7.81,4.57,7.85,4.6l.66.62.7-.58c1.85-1.54,7.27-5.31,10.22-4.23a30.72,30.72,0,0,1,7.49,4.24l.64-.81.78.68c1.32-1.5,5.38-5.22,8.27-4.52,3.84,1,7.81,4.57,7.85,4.6l.67.62.7-.58c1.84-1.54,7.27-5.31,10.22-4.23a30.32,30.32,0,0,1,7.48,4.24l.65-.81.78.68c1.32-1.5,5.38-5.22,8.27-4.52,3.84,1,7.81,4.57,7.85,4.6l.67.62.69-.58c1.85-1.54,7.28-5.31,10.23-4.23a30.55,30.55,0,0,1,7.48,4.24l1.3-1.62A32.53,32.53,0,0,0,695.35,623.55Z" style="fill: #684c46"/>
          <path d="M695.35,633.92c-3.92-1.42-9.54,2.48-11.56,4-1.39-1.15-4.69-3.66-8.08-4.5-3.8-1-8.05,2.83-9.67,4.46a31.51,31.51,0,0,0-7.3-4c-3.92-1.42-9.55,2.48-11.57,4-1.39-1.15-4.69-3.66-8.08-4.5-3.8-1-8.05,2.83-9.66,4.46a31.84,31.84,0,0,0-7.31-4c-3.92-1.42-9.54,2.48-11.57,4a22.72,22.72,0,0,0-8.07-4.5c-3.81-1-8.06,2.83-9.67,4.46a31.62,31.62,0,0,0-7.31-4c-3.92-1.42-9.54,2.48-11.57,4a22.63,22.63,0,0,0-8.07-4.5c-4.7-1.19-10.1,4.9-10.33,5.16l1.56,1.37c1.32-1.51,5.38-5.23,8.27-4.52,3.84,1,7.81,4.56,7.85,4.6l.67.61.69-.58c1.85-1.54,7.28-5.3,10.22-4.23a30.85,30.85,0,0,1,7.49,4.24l.65-.81.78.69c1.32-1.51,5.37-5.23,8.27-4.52,3.83,1,7.81,4.56,7.85,4.6l.66.61.7-.58c1.85-1.54,7.27-5.3,10.22-4.23a31.08,31.08,0,0,1,7.49,4.24l.64-.81.78.69c1.32-1.51,5.38-5.23,8.27-4.52,3.84,1,7.81,4.56,7.85,4.6l.67.61.7-.58c1.84-1.54,7.27-5.3,10.22-4.23a30.68,30.68,0,0,1,7.48,4.24l.65-.81.78.69c1.32-1.51,5.38-5.23,8.27-4.52,3.84,1,7.81,4.56,7.85,4.6l.67.61.69-.58c1.85-1.54,7.28-5.3,10.23-4.23a30.91,30.91,0,0,1,7.48,4.24l1.3-1.62A32.88,32.88,0,0,0,695.35,633.92Z" style="fill: #684c46"/>
          <path d="M695.35,644.29c-3.92-1.42-9.54,2.48-11.56,4a22.93,22.93,0,0,0-8.08-4.5c-3.8-1-8.05,2.83-9.67,4.46a31.51,31.51,0,0,0-7.3-4c-3.92-1.42-9.55,2.48-11.57,4a22.93,22.93,0,0,0-8.08-4.5c-3.8-1-8.05,2.83-9.66,4.46a31.84,31.84,0,0,0-7.31-4c-3.92-1.42-9.54,2.48-11.57,4a22.87,22.87,0,0,0-8.07-4.5c-3.81-1-8.06,2.83-9.67,4.46a31.62,31.62,0,0,0-7.31-4c-3.92-1.42-9.54,2.48-11.57,4a22.78,22.78,0,0,0-8.07-4.5c-4.7-1.19-10.1,4.9-10.33,5.16l1.56,1.37c1.32-1.5,5.38-5.23,8.27-4.52,3.84,1,7.81,4.56,7.85,4.6l.67.61.69-.57c1.85-1.54,7.28-5.31,10.22-4.24a30.71,30.71,0,0,1,7.49,4.25l.65-.81.78.68c1.32-1.5,5.37-5.23,8.27-4.52,3.83,1,7.81,4.56,7.85,4.6l.66.61.7-.57c1.85-1.54,7.27-5.31,10.22-4.24a31,31,0,0,1,7.49,4.25l.64-.81.78.68c1.32-1.5,5.38-5.23,8.27-4.52,3.84,1,7.81,4.56,7.85,4.6l.67.61.7-.57c1.84-1.54,7.27-5.31,10.22-4.24a30.54,30.54,0,0,1,7.48,4.25l.65-.81.78.68c1.32-1.5,5.38-5.23,8.27-4.52,3.84,1,7.81,4.56,7.85,4.6l.67.61.69-.57c1.85-1.54,7.28-5.31,10.23-4.24a30.77,30.77,0,0,1,7.48,4.25l1.3-1.62A32.41,32.41,0,0,0,695.35,644.29Z" style="fill: #684c46"/>
        </g>
        <g>
          <g style="opacity: 0.7000000000000001">
            <path d="M159.2,492.53h12.34v12.35H159.2V492.53m-1.26-1.25v14.85H172.8V491.28Z" style="fill: #ececec"/>
          </g>
          <g style="opacity: 0.7000000000000001">
            <path d="M159.2,472.76h12.34v12.35H159.2V472.76m-1.26-1.24v14.85H172.8V471.52Z" style="fill: #ececec"/>
          </g>
          <g style="opacity: 0.7000000000000001">
            <path d="M159.2,413.47h12.34v12.36H159.2V413.47m-1.26-1.25v14.86H172.8V412.22Z" style="fill: #ececec"/>
          </g>
          <g style="opacity: 0.7000000000000001">
            <path d="M178.19,492.53h12.35v12.35H178.19V492.53m-1.25-1.25v14.85h14.85V491.28Z" style="fill: #ececec"/>
          </g>
          <g style="opacity: 0.7000000000000001">
            <path d="M178.19,453h12.35v12.35H178.19V453m-1.25-1.25V466.6h14.85V451.75Z" style="fill: #ececec"/>
          </g>
          <g style="opacity: 0.7000000000000001">
            <path d="M178.19,433.24h12.35v12.35H178.19V433.24M176.94,432v14.85h14.85V432Z" style="fill: #ececec"/>
          </g>
          <g style="opacity: 0.7000000000000001">
            <path d="M178.19,413.47h12.35v12.36H178.19V413.47m-1.25-1.25v14.86h14.85V412.22Z" style="fill: #ececec"/>
          </g>
        </g>
        <g>
          <rect x="119.71" y="584.65" width="16.7" height="16.69" style="fill: #ececec;opacity: 0.7000000000000001"/>
          <rect x="137.3" y="564.48" width="16.7" height="16.69" style="fill: #ececec;opacity: 0.7000000000000001"/>
        </g>
        <g>
          <rect x="676.5" y="420.11" width="16.7" height="16.7" style="fill: #ececec;opacity: 0.7000000000000001"/>
          <rect x="697.87" y="442.33" width="16.7" height="16.7" style="fill: #ececec;opacity: 0.7000000000000001"/>
          <rect x="697.87" y="420.11" width="16.7" height="16.7" style="fill: #ececec;opacity: 0.7000000000000001"/>
        </g>
        <g>
          <g style="opacity: 0.7000000000000001">
            <path d="M333.67,530.63h13.71v13.72H333.67V530.63m-1-1v15.79h15.78V529.6Z" style="fill: #ececec"/>
          </g>
          <g style="opacity: 0.7000000000000001">
            <path d="M333.67,509.63h13.71v13.71H333.67V509.63m-1-1v15.79h15.78V508.59Z" style="fill: #ececec"/>
          </g>
          <g style="opacity: 0.7000000000000001">
            <path d="M353.86,551.64h13.72v13.72H353.86V551.64m-1-1v15.78h15.78V550.61Z" style="fill: #ececec"/>
          </g>
          <g style="opacity: 0.7000000000000001">
            <path d="M353.86,530.63h13.72v13.72H353.86V530.63m-1-1v15.79h15.78V529.6Z" style="fill: #ececec"/>
          </g>
        </g>
        <g style="mix-blend-mode: color-dodge">
          <g>
            <g style="opacity: 0.07">
              <polygon points="375.66 476.02 375.66 437.61 373.3 437.61 373.3 475.06 340.91 506.67 340.86 577.05 327.45 590.53 327.45 651.64 363.41 687.51 365.01 685.88 329.81 650.61 329.81 591.51 343.27 578.05 343.27 507.67 375.66 476.02" style="fill: #3073aa"/>
              <polygon points="424.5 685.12 424.5 620.76 379.27 575.47 379.27 529.4 422.31 486.31 422.31 337.42 387.51 302.62 387.51 253.3 385.15 253.3 385.2 303.63 419.95 338.45 419.95 485.33 376.87 528.41 376.91 576.45 422.13 621.74 422.13 685.12 424.5 685.12" style="fill: #3073aa"/>
              <polygon points="455.95 343.17 455.95 242.14 438.13 224.36 438.18 151.31 435.77 151.33 435.77 225.36 453.55 243.12 453.55 342.17 392.86 402.88 392.86 495.62 350.62 537.84 350.67 650.01 369.47 668.86 369.47 687.48 371.88 687.48 371.88 667.86 353.03 649.03 353.03 538.82 395.27 496.6 395.22 403.86 455.95 343.17" style="fill: #3073aa"/>
              <polygon points="598.27 554.62 598.27 513.45 555.98 471.12 555.98 417.34 436.57 297.94 436.57 254.12 434.21 254.12 434.21 298.9 553.62 418.27 553.62 472.1 595.91 514.4 595.91 554.62 598.27 554.62" style="fill: #3073aa"/>
              <polygon points="465.85 605.41 465.85 545.37 441.74 521.24 441.74 389.35 436.97 389.35 436.97 523.16 461.08 547.31 461.08 603.49 430.47 634.1 430.42 687.48 435.15 687.48 435.15 636.09 465.85 605.41" style="fill: #3073aa"/>
              <polygon points="510.13 500.52 510.09 405.17 507.77 405.17 507.77 499.59 478.1 529.24 478.1 632.43 458.89 651.62 458.89 691.45 461.26 691.45 461.26 652.6 480.46 633.46 480.5 530.2 510.13 500.52" style="fill: #3073aa"/>
              <polygon points="553.93 568.25 553.93 526.05 463.66 435.83 463.66 377.44 506.97 334.17 506.97 192.21 531.08 168.11 531.08 133.91 526.31 133.91 526.31 166.12 502.2 190.27 502.2 332.21 458.89 375.5 458.89 437.79 549.17 527.99 549.17 566.29 529.83 585.61 529.83 690.63 534.6 690.65 534.6 587.61 553.93 568.25" style="fill: #3073aa"/>
              <polygon points="542.53 513.74 542.53 357.9 470.97 286.34 470.97 203.49 466.2 203.51 466.2 288.32 537.8 359.86 537.8 511.71 504.39 545.15 504.39 687.48 509.15 687.46 509.15 547.11 542.53 513.74" style="fill: #3073aa"/>
              <polygon points="559.19 186.57 559.19 133.91 556.78 133.91 556.78 185.62 521.59 220.79 521.59 322.12 523.95 322.12 523.95 221.78 559.19 186.57" style="fill: #3073aa"/>
              <polygon points="656.41 653.18 656.41 471.92 605.04 420.52 605.04 327.95 568.68 291.6 568.68 254.86 566.28 254.88 566.28 292.57 602.63 328.94 602.63 421.48 654.01 472.85 654.01 652.17 621.62 684.63 621.62 696.17 623.98 696.17 623.98 685.61 656.41 653.18" style="fill: #3073aa"/>
              <polygon points="719.69 623.14 719.69 470.31 703.87 454.5 703.87 371.44 595.55 263.12 595.55 117 617.34 95.19 615.64 93.52 593.14 116 593.14 264.06 701.51 372.44 701.51 455.48 717.32 471.27 717.28 622.14 705.43 634.01 705.43 693.81 707.83 693.81 707.83 635.02 719.69 623.14" style="fill: #3073aa"/>
              <polygon points="619.25 349.48 619.25 224.05 616.89 224.05 616.89 348.52 571 394.37 571 558.87 518.82 611.07 518.82 691.45 521.18 691.45 521.18 612.05 573.41 559.87 573.41 395.37 619.25 349.48" style="fill: #3073aa"/>
              <path d="M374.46,442.33a4.75,4.75,0,1,0-4.68-4.7A4.68,4.68,0,0,0,374.46,442.33Z" style="fill: #3073aa"/>
              <path d="M386.71,258.07A4.75,4.75,0,1,0,382,253.3,4.75,4.75,0,0,0,386.71,258.07Z" style="fill: #3073aa"/>
              <path d="M436.62,259.65a4.77,4.77,0,0,0-.05-9.54,4.77,4.77,0,1,0,.05,9.54Z" style="fill: #3073aa"/>
              <path d="M558,139.43a4.74,4.74,0,0,0,4.72-4.72,4.8,4.8,0,0,0-4.72-4.79,4.73,4.73,0,0,0-4.72,4.79A4.64,4.64,0,0,0,558,139.43Z" style="fill: #3073aa"/>
              <path d="M522.75,326.84a4.74,4.74,0,1,0-4.77-4.72A4.71,4.71,0,0,0,522.75,326.84Z" style="fill: #3073aa"/>
              <path d="M567.08,260.41a4.73,4.73,0,1,0-4.77-4.73A4.7,4.7,0,0,0,567.08,260.41Z" style="fill: #3073aa"/>
              <path d="M595.55,269.12a4.74,4.74,0,1,0-4.77-4.7A4.74,4.74,0,0,0,595.55,269.12Z" style="fill: #3073aa"/>
              <path d="M554,475a4.74,4.74,0,1,0-4.76-4.75A4.72,4.72,0,0,0,554,475Z" style="fill: #3073aa"/>
              <path d="M478.1,534.28a4.76,4.76,0,1,0,0-9.52,4.76,4.76,0,0,0,0,9.52Z" style="fill: #3073aa"/>
              <path d="M421.11,342.66a4.73,4.73,0,1,0-4.72-4.73A4.72,4.72,0,0,0,421.11,342.66Z" style="fill: #3073aa"/>
              <path d="M508.13,410.27a4.72,4.72,0,1,0-4.72-4.7A4.74,4.74,0,0,0,508.13,410.27Z" style="fill: #3073aa"/>
              <path d="M603.62,426.29a4.72,4.72,0,1,0-4.73-4.75A4.74,4.74,0,0,0,603.62,426.29Z" style="fill: #3073aa"/>
              <path d="M654,477.13a4.76,4.76,0,1,0-4.72-4.74A4.76,4.76,0,0,0,654,477.13Z" style="fill: #3073aa"/>
              <path d="M616.89,97.91a4.75,4.75,0,1,0-4.76-4.73A4.73,4.73,0,0,0,616.89,97.91Z" style="fill: #3073aa"/>
              <path d="M617.7,229.57a4.74,4.74,0,1,0-4.77-4.72A4.75,4.75,0,0,0,617.7,229.57Z" style="fill: #3073aa"/>
              <path d="M595.91,556.22a4.75,4.75,0,1,0-4.72-4.77A4.76,4.76,0,0,0,595.91,556.22Z" style="fill: #3073aa"/>
              <path d="M459.92,657.23a4.75,4.75,0,1,0-4.77-4.79A4.78,4.78,0,0,0,459.92,657.23Z" style="fill: #3073aa"/>
              <path d="M572.25,399.62a4.75,4.75,0,1,0-4.73-4.72A4.75,4.75,0,0,0,572.25,399.62Z" style="fill: #3073aa"/>
              <path d="M394,408.14a4.76,4.76,0,1,0-4.68-4.75A4.72,4.72,0,0,0,394,408.14Z" style="fill: #3073aa"/>
              <path d="M342.47,512.55a4.77,4.77,0,1,0-4.77-4.79A4.74,4.74,0,0,0,342.47,512.55Z" style="fill: #3073aa"/>
              <path d="M328.52,595.88a4.75,4.75,0,1,0-4.77-4.77A4.81,4.81,0,0,0,328.52,595.88Z" style="fill: #3073aa"/>
              <path d="M328.57,655.85a4.75,4.75,0,1,0-4.82-4.77A4.81,4.81,0,0,0,328.57,655.85Z" style="fill: #3073aa"/>
              <path d="M351.07,654.71a4.78,4.78,0,0,0,0-9.56,4.78,4.78,0,0,0,0,9.56Z" style="fill: #3073aa"/>
              <path d="M378.34,580.24a4.75,4.75,0,1,0-4.77-4.77A4.73,4.73,0,0,0,378.34,580.24Z" style="fill: #3073aa"/>
              <path d="M421.11,490.56a4.75,4.75,0,1,0-4.72-4.74A4.72,4.72,0,0,0,421.11,490.56Z" style="fill: #3073aa"/>
              <path d="M437,157.26a4.77,4.77,0,0,0,0-9.54,4.77,4.77,0,0,0,0,9.54Z" style="fill: #3073aa"/>
              <path d="M468.61,210.61a6.72,6.72,0,1,0-6.73-6.73A6.74,6.74,0,0,0,468.61,210.61Z" style="fill: #3073aa"/>
              <path d="M439.51,396.55a6.73,6.73,0,1,0-6.68-6.71A6.73,6.73,0,0,0,439.51,396.55Z" style="fill: #3073aa"/>
              <path d="M439.82,529.4a6.71,6.71,0,1,0-6.72-6.73A6.68,6.68,0,0,0,439.82,529.4Z" style="fill: #3073aa"/>
              <path d="M529.12,139.83a6.73,6.73,0,0,0,0-13.45,6.73,6.73,0,1,0,0,13.45Z" style="fill: #3073aa"/>
            </g>
            <g style="opacity: 0.2">
              <polygon points="413.71 454.21 413.71 425.8 411.98 425.8 411.98 453.51 387.96 476.88 387.96 528.95 378.02 538.89 378.02 584.07 404.62 610.67 405.83 609.42 379.81 583.35 379.81 539.64 389.74 529.69 389.74 477.62 413.71 454.21" style="fill: #3073aa"/>
              <polygon points="449.85 608.86 449.81 561.27 416.39 527.77 416.34 493.73 448.2 461.85 448.2 351.73 422.49 325.99 422.49 289.5 420.71 289.5 420.71 326.73 446.46 352.46 446.46 461.13 414.61 492.97 414.61 528.5 448.07 562.01 448.07 608.86 449.85 608.86" style="fill: #3073aa"/>
              <polygon points="473.06 355.98 473.06 281.24 459.92 268.09 459.88 214.07 458.18 214.04 458.18 268.8 471.32 281.97 471.32 355.22 426.41 400.14 426.41 468.71 395.18 499.94 395.18 582.91 409.12 596.83 409.12 610.62 410.91 610.62 410.91 596.07 396.96 582.17 396.96 500.66 428.19 469.44 428.19 400.85 473.06 355.98" style="fill: #3073aa"/>
              <polygon points="578.35 512.35 578.31 481.9 547.07 450.57 547.07 410.81 458.76 322.5 458.76 290.13 456.98 290.13 456.98 323.23 545.29 411.52 545.29 451.33 576.57 482.61 576.57 512.35 578.35 512.35" style="fill: #3073aa"/>
              <polygon points="480.42 549.91 480.42 505.49 462.59 487.65 462.55 390.11 459.03 390.09 459.03 489.07 476.9 506.94 476.9 548.49 454.22 571.15 454.22 610.62 457.69 610.62 457.69 572.64 480.42 549.91" style="fill: #3073aa"/>
              <polygon points="513.12 472.36 513.12 401.83 511.38 401.83 511.38 471.65 489.46 493.57 489.46 569.9 475.25 584.07 475.25 613.56 477.03 613.56 477.03 584.83 491.2 570.63 491.2 494.28 513.12 472.36" style="fill: #3073aa"/>
              <polygon points="545.56 522.45 545.56 491.23 478.77 424.49 478.77 381.33 510.8 349.3 510.8 244.32 528.63 226.48 528.63 201.19 525.11 201.19 525.11 225.03 507.28 242.87 507.28 347.87 475.25 379.86 475.25 425.93 542.04 492.68 542.04 520.97 527.74 535.28 527.74 612.96 531.25 612.96 531.25 536.75 545.56 522.45" style="fill: #3073aa"/>
              <polygon points="537.14 482.1 537.14 366.85 484.2 313.92 484.2 252.68 480.68 252.65 480.68 315.37 533.62 368.32 533.62 480.61 508.89 505.33 508.89 610.62 512.41 610.64 512.41 506.81 537.14 482.1" style="fill: #3073aa"/>
              <polygon points="549.43 240.16 549.43 201.19 547.65 201.19 547.65 239.44 521.63 265.46 521.63 340.38 523.37 340.38 523.37 266.18 549.43 240.16" style="fill: #3073aa"/>
              <polygon points="621.35 585.23 621.35 451.18 583.34 413.15 583.34 344.69 556.43 317.84 556.43 290.64 554.69 290.64 554.69 318.55 581.56 345.42 581.56 413.86 619.57 451.89 619.57 584.51 595.6 608.51 595.64 617.04 597.38 617.02 597.38 609.2 621.35 585.23" style="fill: #3073aa"/>
              <polygon points="668.13 563.04 668.13 450 656.46 438.32 656.46 376.88 576.3 296.76 576.3 188.71 592.43 172.59 591.18 171.34 574.56 187.96 574.56 297.48 654.68 377.61 654.68 439.04 666.39 450.71 666.39 562.28 657.62 571.06 657.62 615.3 659.36 615.3 659.36 571.82 668.13 563.04" style="fill: #3073aa"/>
              <polygon points="593.86 360.64 593.86 267.87 592.12 267.87 592.12 359.92 558.17 393.83 558.17 515.52 519.58 554.1 519.58 613.56 521.32 613.56 521.32 554.81 559.95 516.27 559.91 394.57 593.86 360.64" style="fill: #3073aa"/>
              <path d="M412.82,429.3a3.48,3.48,0,0,0,3.52-3.5,3.5,3.5,0,1,0-7,0A3.47,3.47,0,0,0,412.82,429.3Z" style="fill: #3073aa"/>
              <path d="M421.87,293a3.5,3.5,0,1,0,0-7,3.5,3.5,0,0,0,0,7Z" style="fill: #3073aa"/>
              <path d="M458.76,294.18a3.52,3.52,0,1,0-3.52-3.52A3.49,3.49,0,0,0,458.76,294.18Z" style="fill: #3073aa"/>
              <path d="M548.54,205.29a3.51,3.51,0,1,0-3.52-3.52A3.53,3.53,0,0,0,548.54,205.29Z" style="fill: #3073aa"/>
              <path d="M522.48,343.9a3.59,3.59,0,0,0,3.56-3.52,3.54,3.54,0,1,0-3.56,3.52Z" style="fill: #3073aa"/>
              <path d="M555.27,294.76a3.5,3.5,0,0,0,0-7,3.5,3.5,0,1,0,0,7Z" style="fill: #3073aa"/>
              <path d="M576.3,301.22a3.51,3.51,0,0,0,3.52-3.5,3.52,3.52,0,1,0-3.52,3.5Z" style="fill: #3073aa"/>
              <path d="M545.6,453.43a3.5,3.5,0,1,0-3.52-3.55A3.57,3.57,0,0,0,545.6,453.43Z" style="fill: #3073aa"/>
              <path d="M489.46,497.31a3.52,3.52,0,1,0-3.52-3.54A3.53,3.53,0,0,0,489.46,497.31Z" style="fill: #3073aa"/>
              <path d="M447.31,355.56a3.46,3.46,0,0,0,3.52-3.46,3.5,3.5,0,1,0-7,0A3.44,3.44,0,0,0,447.31,355.56Z" style="fill: #3073aa"/>
              <path d="M511.69,405.59a3.49,3.49,0,1,0-3.52-3.49A3.51,3.51,0,0,0,511.69,405.59Z" style="fill: #3073aa"/>
              <path d="M582.32,417.42a3.5,3.5,0,0,0,3.52-3.47,3.52,3.52,0,0,0-7,0A3.48,3.48,0,0,0,582.32,417.42Z" style="fill: #3073aa"/>
              <path d="M619.57,455.05a3.49,3.49,0,0,0,3.52-3.52,3.5,3.5,0,1,0-7,0A3.5,3.5,0,0,0,619.57,455.05Z" style="fill: #3073aa"/>
              <path d="M592.12,174.57a3.51,3.51,0,1,0-3.52-3.5A3.47,3.47,0,0,0,592.12,174.57Z" style="fill: #3073aa"/>
              <path d="M592.7,272a3.5,3.5,0,0,0,3.47-3.5,3.46,3.46,0,0,0-3.47-3.5,3.5,3.5,0,1,0,0,7Z" style="fill: #3073aa"/>
              <path d="M576.57,513.51a3.5,3.5,0,1,0,0-7,3.52,3.52,0,0,0-3.52,3.49A3.47,3.47,0,0,0,576.57,513.51Z" style="fill: #3073aa"/>
              <path d="M476,588.23a3.49,3.49,0,0,0,3.52-3.49,3.5,3.5,0,1,0-3.52,3.49Z" style="fill: #3073aa"/>
              <path d="M559.1,397.73a3.52,3.52,0,0,0,3.52-3.5,3.56,3.56,0,0,0-3.56-3.54,3.52,3.52,0,0,0,0,7Z" style="fill: #3073aa"/>
              <path d="M427.3,404a3.52,3.52,0,1,0-3.52-3.54A3.53,3.53,0,0,0,427.3,404Z" style="fill: #3073aa"/>
              <path d="M389.16,481.23a3.51,3.51,0,1,0-3.52-3.52A3.49,3.49,0,0,0,389.16,481.23Z" style="fill: #3073aa"/>
              <path d="M378.83,542.85a3.51,3.51,0,1,0-3.52-3.52A3.53,3.53,0,0,0,378.83,542.85Z" style="fill: #3073aa"/>
              <path d="M378.83,587.21a3.51,3.51,0,1,0-3.48-3.5A3.45,3.45,0,0,0,378.83,587.21Z" style="fill: #3073aa"/>
              <path d="M395.49,586.34A3.52,3.52,0,1,0,392,582.8,3.5,3.5,0,0,0,395.49,586.34Z" style="fill: #3073aa"/>
              <path d="M415.67,531.29a3.51,3.51,0,1,0-3.52-3.52A3.51,3.51,0,0,0,415.67,531.29Z" style="fill: #3073aa"/>
              <path d="M447.31,464.94a3.45,3.45,0,0,0,3.52-3.45,3.5,3.5,0,1,0-3.52,3.45Z" style="fill: #3073aa"/>
              <path d="M459,218.46a3.51,3.51,0,1,0,0-7,3.51,3.51,0,1,0,0,7Z" style="fill: #3073aa"/>
              <path d="M482.42,257.91a5,5,0,1,0-4.94-5A4.94,4.94,0,0,0,482.42,257.91Z" style="fill: #3073aa"/>
              <path d="M460.94,395.46a5,5,0,1,0-4.94-4.95A5,5,0,0,0,460.94,395.46Z" style="fill: #3073aa"/>
              <path d="M461.17,493.73a5,5,0,0,0,0-10,4.9,4.9,0,0,0-4.95,5A5,5,0,0,0,461.17,493.73Z" style="fill: #3073aa"/>
              <path d="M527.2,205.56a5,5,0,1,0-5-4.95A4.94,4.94,0,0,0,527.2,205.56Z" style="fill: #3073aa"/>
            </g>
            <g>
              <polygon points="427.39 446.39 427.39 421.57 425.88 421.57 425.88 445.76 404.94 466.19 404.94 511.62 396.25 520.31 396.25 559.74 419.46 582.95 420.53 581.88 397.81 559.12 397.81 520.93 406.5 512.24 406.5 466.79 427.39 446.39" style="fill: #3073aa"/>
              <polygon points="458.98 581.39 458.94 539.82 429.71 510.59 429.71 480.83 457.56 453.02 457.56 356.87 435.06 334.41 435.1 302.56 433.54 302.56 433.54 335.04 456 357.54 456 452.4 428.19 480.23 428.19 511.22 457.42 540.49 457.42 581.39 458.98 581.39" style="fill: #3073aa"/>
              <polygon points="479.26 360.57 479.26 295.34 467.76 283.84 467.76 236.68 466.25 236.68 466.25 284.51 477.7 295.96 477.74 359.95 438.53 399.16 438.53 459.04 411.26 486.27 411.26 558.69 423.43 570.86 423.43 582.91 424.94 582.91 424.94 570.25 412.78 558.09 412.78 486.95 440.09 459.66 440.05 399.78 479.26 360.57" style="fill: #3073aa"/>
              <polygon points="571.18 497.11 571.18 470.54 543.86 443.18 543.86 408.47 466.78 331.34 466.74 303.09 465.22 303.07 465.22 331.99 542.31 409.09 542.31 443.85 569.62 471.16 569.62 497.14 571.18 497.11" style="fill: #3073aa"/>
              <polygon points="485.63 529.93 485.63 491.12 470.08 475.57 470.08 390.38 467 390.36 467 476.82 482.55 492.41 482.55 528.68 462.77 548.47 462.77 582.91 465.85 582.91 465.85 549.71 485.63 529.93" style="fill: #3073aa"/>
              <polygon points="514.23 462.2 514.23 400.63 512.72 400.63 512.72 461.58 493.56 480.74 493.56 547.35 481.17 559.72 481.17 585.49 482.69 585.49 482.69 560.38 495.08 548 495.12 481.36 514.23 462.2" style="fill: #3073aa"/>
              <polygon points="542.53 505.89 542.53 478.67 484.25 420.41 484.25 382.71 512.18 354.78 512.18 263.1 527.78 247.53 527.78 225.43 524.71 225.43 524.71 246.26 509.11 261.83 509.15 353.49 481.17 381.47 481.17 421.66 539.45 479.94 539.45 504.64 526.98 517.12 526.98 584.96 530.01 584.96 530.05 518.43 542.53 505.89" style="fill: #3073aa"/>
              <polygon points="535.18 470.71 535.18 370.13 488.97 323.92 488.97 270.39 485.9 270.36 485.9 325.15 532.1 371.35 532.1 469.42 510.54 490.99 510.54 582.91 513.61 582.91 513.61 492.28 535.18 470.71" style="fill: #3073aa"/>
              <polygon points="545.91 259.47 545.91 225.41 544.35 225.45 544.35 258.85 521.63 281.55 521.63 346.96 523.19 346.98 523.19 282.19 545.91 259.47" style="fill: #3073aa"/>
              <polygon points="608.69 560.74 608.69 443.71 575.5 410.52 575.5 350.77 552.02 327.29 552.02 303.56 550.5 303.6 550.5 327.91 573.98 351.39 573.98 411.14 607.18 444.34 607.18 560.16 586.24 581.08 586.24 588.52 587.8 588.52 587.75 581.71 608.69 560.74" style="fill: #3073aa"/>
              <polygon points="649.6 541.38 649.55 442.69 639.35 432.48 639.35 378.84 569.4 308.88 569.4 214.51 583.48 200.43 582.36 199.36 567.84 213.89 567.88 309.51 637.84 379.46 637.84 433.11 648.04 443.29 648.04 540.71 640.38 548.38 640.38 587.01 641.89 587.01 641.89 549.04 649.6 541.38" style="fill: #3073aa"/>
              <polygon points="584.72 364.67 584.72 283.66 583.16 283.66 583.16 364.04 553.58 393.63 553.53 499.86 519.85 533.59 519.85 585.49 521.36 585.49 521.36 534.21 555.09 500.5 555.09 394.3 584.72 364.67" style="fill: #3073aa"/>
              <path d="M426.64,424.62a3.07,3.07,0,1,0-3-3.05A3.06,3.06,0,0,0,426.64,424.62Z" style="fill: #3073aa"/>
              <path d="M434.57,305.63a3.08,3.08,0,1,0-3.08-3.07A3.08,3.08,0,0,0,434.57,305.63Z" style="fill: #3073aa"/>
              <path d="M466.74,306.66a3.08,3.08,0,1,0-3.08-3.08A3.08,3.08,0,0,0,466.74,306.66Z" style="fill: #3073aa"/>
              <path d="M545.16,229a3.06,3.06,0,0,0,3-3.08,3.1,3.1,0,0,0-3-3.07,3.07,3.07,0,0,0-3.08,3.09A3,3,0,0,0,545.16,229Z" style="fill: #3073aa"/>
              <path d="M522.39,350.06a3,3,0,0,0,3.07-3.08,3.08,3.08,0,1,0-6.15,0A3.09,3.09,0,0,0,522.39,350.06Z" style="fill: #3073aa"/>
              <path d="M551,307.15a3.07,3.07,0,1,0,0-6.13,3.07,3.07,0,1,0,0,6.13Z" style="fill: #3073aa"/>
              <path d="M569.4,312.76a3.05,3.05,0,0,0,0-6.1,3.05,3.05,0,1,0,0,6.1Z" style="fill: #3073aa"/>
              <path d="M542.62,445.67a3.08,3.08,0,0,0,3-3.07,3,3,0,0,0-3-3,3.05,3.05,0,1,0,0,6.1Z" style="fill: #3073aa"/>
              <path d="M493.56,484a3.08,3.08,0,1,0-3.07-3.07A3.08,3.08,0,0,0,493.56,484Z" style="fill: #3073aa"/>
              <path d="M456.76,360.26a3.07,3.07,0,0,0,3.07-3.08,3.05,3.05,0,0,0-6.1,0A3.08,3.08,0,0,0,456.76,360.26Z" style="fill: #3073aa"/>
              <path d="M512.94,403.92a3.08,3.08,0,0,0,3.08-3.07,3.08,3.08,0,1,0-3.08,3.07Z" style="fill: #3073aa"/>
              <path d="M574.61,414.24a3,3,0,1,0,0-6.08,3,3,0,1,0,0,6.08Z" style="fill: #3073aa"/>
              <path d="M607.18,447.1a3.08,3.08,0,1,0-3.07-3.08A3.1,3.1,0,0,0,607.18,447.1Z" style="fill: #3073aa"/>
              <path d="M583.16,202.21a3.08,3.08,0,0,0,3.08-3.07,3.08,3.08,0,0,0-6.15,0A3.12,3.12,0,0,0,583.16,202.21Z" style="fill: #3073aa"/>
              <path d="M583.7,287.23a3.11,3.11,0,0,0,3.07-3.08,3.08,3.08,0,1,0-3.07,3.08Z" style="fill: #3073aa"/>
              <path d="M569.62,498.16a3.08,3.08,0,0,0,0-6.15,3.08,3.08,0,0,0,0,6.15Z" style="fill: #3073aa"/>
              <path d="M481.8,563.39a3.08,3.08,0,0,0,0-6.15,3.08,3.08,0,1,0,0,6.15Z" style="fill: #3073aa"/>
              <path d="M554.38,397a3,3,0,0,0,3-3,3.1,3.1,0,0,0-3.08-3.08,3.06,3.06,0,0,0-3,3.1A3,3,0,0,0,554.38,397Z" style="fill: #3073aa"/>
              <path d="M439.29,402.54a3.08,3.08,0,0,0,3.07-3.07,3.08,3.08,0,1,0-3.07,3.07Z" style="fill: #3073aa"/>
              <path d="M406,470a3.08,3.08,0,1,0-3.07-3.08A3.11,3.11,0,0,0,406,470Z" style="fill: #3073aa"/>
              <path d="M397,523.74a3.06,3.06,0,1,0-3.07-3.08A3.07,3.07,0,0,0,397,523.74Z" style="fill: #3073aa"/>
              <path d="M397,562.5a3.08,3.08,0,0,0,0-6.15,3.08,3.08,0,0,0,0,6.15Z" style="fill: #3073aa"/>
              <path d="M411.53,561.75a3.08,3.08,0,1,0-3.07-3.08A3.11,3.11,0,0,0,411.53,561.75Z" style="fill: #3073aa"/>
              <path d="M429.13,513.67a3.08,3.08,0,1,0-3.07-3.08A3.07,3.07,0,0,0,429.13,513.67Z" style="fill: #3073aa"/>
              <path d="M456.76,455.74a3,3,0,0,0,3.07-3,3.05,3.05,0,1,0-3.07,3Z" style="fill: #3073aa"/>
              <path d="M467,240.51a3.07,3.07,0,1,0-3.07-3.07A3.09,3.09,0,0,0,467,240.51Z" style="fill: #3073aa"/>
              <path d="M487.41,275a4.34,4.34,0,1,0-4.32-4.34A4.3,4.3,0,0,0,487.41,275Z" style="fill: #3073aa"/>
              <path d="M468.65,395a4.25,4.25,0,0,0,4.32-4.29,4.32,4.32,0,1,0-4.32,4.29Z" style="fill: #3073aa"/>
              <path d="M468.88,480.83a4.32,4.32,0,1,0-4.37-4.32A4.32,4.32,0,0,0,468.88,480.83Z" style="fill: #3073aa"/>
              <path d="M526.49,229.26a4.33,4.33,0,1,0-4.32-4.32A4.31,4.31,0,0,0,526.49,229.26Z" style="fill: #3073aa"/>
            </g>
          </g>
          <path d="M403.73,560.12a7.22,7.22,0,1,1-7.22-7.22A7.25,7.25,0,0,1,403.73,560.12Zm-13.19,0a6,6,0,1,0,6-6A6,6,0,0,0,390.54,560.12Z" style="fill: #3073aa"/>
          <path d="M403.73,520.91a7.22,7.22,0,1,1-7.22-7.22A7.23,7.23,0,0,1,403.73,520.91Zm-13.19,0a6,6,0,0,0,6,6,6,6,0,1,0-6-6Z" style="fill: #3073aa"/>
          <path d="M412.64,467.44a7.22,7.22,0,1,1-7.21-7.22A7.24,7.24,0,0,1,412.64,467.44Zm-13.18,0a6,6,0,0,0,6,6,6,6,0,1,0-6-6Z" style="fill: #3073aa"/>
          <path d="M433.32,421.81a7.22,7.22,0,1,1-7.22-7.19A7.23,7.23,0,0,1,433.32,421.81Zm-13.19,0a6,6,0,1,0,6-6A6,6,0,0,0,420.13,421.81Z" style="fill: #3073aa"/>
          <path d="M436.53,510.57a7.22,7.22,0,1,1-7.22-7.22A7.27,7.27,0,0,1,436.53,510.57Zm-13.24,0a6.07,6.07,0,0,0,6,6,6,6,0,0,0,0-12A6,6,0,0,0,423.29,510.57Z" style="fill: #3073aa"/>
          <path d="M441.16,302.76a7.22,7.22,0,1,1-7.22-7.22A7.23,7.23,0,0,1,441.16,302.76Zm-13.19,0a6,6,0,0,0,6,6,6,6,0,1,0-6-6Z" style="fill: #3073aa"/>
          <path d="M576.61,494.86a7.22,7.22,0,1,1-7.21-7.21A7.23,7.23,0,0,1,576.61,494.86Zm-13.18.05a6,6,0,1,0,6-6A6,6,0,0,0,563.43,494.91Z" style="fill: #3073aa"/>
          <path d="M614.76,443.65a7.22,7.22,0,1,1-7.22-7.2A7.2,7.2,0,0,1,614.76,443.65Zm-13.19,0a6,6,0,1,0,6-6A6,6,0,0,0,601.57,443.67Z" style="fill: #3073aa"/>
          <path d="M558.43,303.58a7.22,7.22,0,1,1-7.21-7.22A7.23,7.23,0,0,1,558.43,303.58Zm-13.18,0a6,6,0,1,0,11.94,0,6,6,0,0,0-11.94,0Z" style="fill: #3073aa"/>
          <path d="M589.8,198.78a7.22,7.22,0,1,1-7.22-7.21A7.24,7.24,0,0,1,589.8,198.78Zm-13.19,0a6,6,0,1,0,6-5.95A6,6,0,0,0,576.61,198.76Z" style="fill: #3073aa"/>
          <path d="M590.87,283.6a7.22,7.22,0,1,1-7.22-7.22A7.23,7.23,0,0,1,590.87,283.6Zm-13.19,0a6,6,0,1,0,6-6A6,6,0,0,0,577.68,283.62Z" style="fill: #3073aa"/>
          <path d="M551.66,226.23a6.15,6.15,0,1,1-6.15-6.15A6.16,6.16,0,0,1,551.66,226.23Zm-11.23,0a5.07,5.07,0,0,0,5.08,5.08,5.08,5.08,0,0,0,0-10.16A5.08,5.08,0,0,0,540.43,226.23Z" style="fill: #3073aa"/>
          <path d="M472.89,237.28a6.15,6.15,0,1,1-6.15-6.17A6.16,6.16,0,0,1,472.89,237.28Zm-11.23,0a5.08,5.08,0,1,0,10.16,0,5.16,5.16,0,0,0-5.08-5.1A5.1,5.1,0,0,0,461.66,237.28Z" style="fill: #3073aa"/>
          <path d="M472.53,303.22a6.17,6.17,0,1,1-6.15-6.14A6.17,6.17,0,0,1,472.53,303.22Zm-11.23,0a5.08,5.08,0,1,0,5.08-5.07A5.11,5.11,0,0,0,461.3,303.22Z" style="fill: #3073aa"/>
          <path d="M478.94,477.15a9.71,9.71,0,1,1-9.71-9.69A9.74,9.74,0,0,1,478.94,477.15Zm-17.77,0a8,8,0,1,0,16.08,0,8,8,0,0,0-16.08,0Z" style="fill: #3073aa"/>
          <path d="M478.94,390.89a9.71,9.71,0,1,1-9.71-9.69A9.74,9.74,0,0,1,478.94,390.89Zm-17.77,0a8,8,0,1,0,8.06-8A8.08,8.08,0,0,0,461.17,390.91Z" style="fill: #3073aa"/>
          <path d="M497.12,270.43a9.71,9.71,0,1,1-9.71-9.69A9.73,9.73,0,0,1,497.12,270.43Zm-17.77,0a8,8,0,1,0,8.06-8A8.07,8.07,0,0,0,479.35,270.43Z" style="fill: #3073aa"/>
          <path d="M536.69,225.16a9.72,9.72,0,1,1-9.71-9.71A9.73,9.73,0,0,1,536.69,225.16Zm-17.73,0a8,8,0,1,0,8-8A8,8,0,0,0,519,225.16Z" style="fill: #3073aa"/>
        </g>
      </g>
    </g>
  </g>
</svg>
